<mxfile host="app.diagrams.net" modified="2024-06-22T18:06:46.302Z" agent="Mozilla/5.0 (Windows NT 10.0; Win64; x64) AppleWebKit/537.36 (KHTML, like Gecko) Chrome/126.0.0.0 Safari/537.36" etag="e0bjsEOXbpnUnjnMpUgW" version="24.6.1" type="device">
  <diagram name="Страница — 1" id="CO9rF1448jzW5_NjgiLH">
    <mxGraphModel dx="4175" dy="2729" grid="1" gridSize="10" guides="1" tooltips="1" connect="1" arrows="1" fold="1" page="1" pageScale="1" pageWidth="827" pageHeight="1169" math="0" shadow="0">
      <root>
        <mxCell id="0" />
        <mxCell id="1" parent="0" />
        <mxCell id="N7zTeuolgDiuBjq7Ixwe-7" value="&lt;font style=&quot;font-size: 20px;&quot;&gt;Общий функционал приложения&lt;/font&gt;" style="swimlane;whiteSpace=wrap;html=1;fillColor=#e6d0de;strokeColor=#996185;gradientColor=#d5739d;" parent="1" vertex="1">
          <mxGeometry x="200" y="-310" width="1190" height="1100" as="geometry">
            <mxRectangle x="414" y="160" width="200" height="30" as="alternateBounds" />
          </mxGeometry>
        </mxCell>
        <mxCell id="N7zTeuolgDiuBjq7Ixwe-9" value="&lt;b style=&quot;&quot;&gt;&lt;i style=&quot;&quot;&gt;&lt;font style=&quot;font-size: 24px;&quot;&gt;Добавить новый список&lt;/font&gt;&lt;/i&gt;&lt;/b&gt;" style="ellipse;whiteSpace=wrap;html=1;fillColor=none;shadow=0;" parent="N7zTeuolgDiuBjq7Ixwe-7" vertex="1">
          <mxGeometry x="480" y="120" width="200" height="150" as="geometry" />
        </mxCell>
        <mxCell id="N7zTeuolgDiuBjq7Ixwe-30" value="&lt;span style=&quot;font-size: 18px;&quot;&gt;&lt;b&gt;&lt;i&gt;Открыть меню&lt;/i&gt;&lt;/b&gt;&lt;/span&gt;&lt;div&gt;&lt;span style=&quot;font-size: 18px;&quot;&gt;&lt;b&gt;&lt;i&gt;&quot;Мои списки&quot;&lt;/i&gt;&lt;/b&gt;&lt;/span&gt;&lt;/div&gt;" style="ellipse;whiteSpace=wrap;html=1;fillColor=none;shadow=0;" parent="N7zTeuolgDiuBjq7Ixwe-7" vertex="1">
          <mxGeometry x="915" y="470" width="220" height="160" as="geometry" />
        </mxCell>
        <mxCell id="N7zTeuolgDiuBjq7Ixwe-57" value="&lt;font size=&quot;1&quot; style=&quot;&quot;&gt;&lt;b style=&quot;&quot;&gt;&lt;i style=&quot;font-size: 18px;&quot;&gt;Открыть&lt;/i&gt;&lt;/b&gt;&lt;/font&gt;&lt;div&gt;&lt;font size=&quot;1&quot; style=&quot;&quot;&gt;&lt;b style=&quot;&quot;&gt;&lt;i style=&quot;font-size: 18px;&quot;&gt;&quot;Избранное&quot;&lt;/i&gt;&lt;/b&gt;&lt;/font&gt;&lt;/div&gt;" style="ellipse;whiteSpace=wrap;html=1;fillColor=none;shadow=0;" parent="N7zTeuolgDiuBjq7Ixwe-7" vertex="1">
          <mxGeometry x="60" y="830" width="200" height="162.5" as="geometry" />
        </mxCell>
        <mxCell id="N7zTeuolgDiuBjq7Ixwe-69" value="&lt;span style=&quot;font-size: 18px;&quot;&gt;&lt;b&gt;&lt;i&gt;Открыть историю&lt;/i&gt;&lt;/b&gt;&lt;/span&gt;&lt;div&gt;&lt;span style=&quot;font-size: 18px;&quot;&gt;&lt;b&gt;&lt;i&gt;купленного товара&amp;nbsp;&lt;/i&gt;&lt;/b&gt;&lt;/span&gt;&lt;/div&gt;" style="ellipse;whiteSpace=wrap;html=1;fillColor=none;" parent="N7zTeuolgDiuBjq7Ixwe-7" vertex="1">
          <mxGeometry x="915" y="831.25" width="220" height="160" as="geometry" />
        </mxCell>
        <mxCell id="CrFY21kCpMWypFzNiftc-14" value="&lt;b style=&quot;&quot;&gt;&lt;i style=&quot;&quot;&gt;&lt;font style=&quot;font-size: 24px;&quot;&gt;Найти список&lt;/font&gt;&lt;/i&gt;&lt;/b&gt;&lt;div style=&quot;&quot;&gt;&lt;b style=&quot;&quot;&gt;&lt;i style=&quot;&quot;&gt;&lt;font style=&quot;font-size: 24px;&quot;&gt;по названию&lt;/font&gt;&lt;/i&gt;&lt;/b&gt;&lt;/div&gt;" style="ellipse;whiteSpace=wrap;html=1;fillColor=none;" parent="N7zTeuolgDiuBjq7Ixwe-7" vertex="1">
          <mxGeometry x="920" y="115" width="210" height="160" as="geometry" />
        </mxCell>
        <mxCell id="WhKFYp0LhZyAlXZoGGrV-61" value="&lt;b style=&quot;&quot;&gt;&lt;i style=&quot;&quot;&gt;&lt;font style=&quot;font-size: 24px;&quot;&gt;Выйти из приложения&lt;/font&gt;&lt;/i&gt;&lt;/b&gt;" style="ellipse;whiteSpace=wrap;html=1;fillColor=none;shadow=0;" parent="N7zTeuolgDiuBjq7Ixwe-7" vertex="1">
          <mxGeometry x="60" y="120" width="200" height="150" as="geometry" />
        </mxCell>
        <mxCell id="N7zTeuolgDiuBjq7Ixwe-26" value="&lt;font style=&quot;font-size: 18px;&quot;&gt;Добавление товара&lt;/font&gt;" style="swimlane;whiteSpace=wrap;html=1;fillColor=#f5f5f5;strokeColor=#666666;gradientColor=#b3b3b3;" parent="1" vertex="1">
          <mxGeometry x="630" y="-700" width="310" height="320" as="geometry" />
        </mxCell>
        <mxCell id="N7zTeuolgDiuBjq7Ixwe-27" value="&lt;font style=&quot;font-size: 18px;&quot;&gt;&lt;b style=&quot;&quot;&gt;&lt;i style=&quot;&quot;&gt;Добавить новый&lt;/i&gt;&lt;/b&gt;&lt;/font&gt;&lt;div style=&quot;font-size: 18px;&quot;&gt;&lt;font style=&quot;font-size: 18px;&quot;&gt;&lt;b style=&quot;&quot;&gt;&lt;i style=&quot;&quot;&gt;товар&lt;/i&gt;&lt;/b&gt;&lt;/font&gt;&lt;/div&gt;" style="ellipse;whiteSpace=wrap;html=1;fillColor=none;" parent="N7zTeuolgDiuBjq7Ixwe-26" vertex="1">
          <mxGeometry x="60" y="100" width="200" height="150" as="geometry" />
        </mxCell>
        <mxCell id="N7zTeuolgDiuBjq7Ixwe-48" value="&lt;font style=&quot;font-size: 18px;&quot;&gt;Параметры товара&lt;/font&gt;" style="swimlane;whiteSpace=wrap;html=1;fillColor=#f5f5f5;strokeColor=#666666;gradientColor=#b3b3b3;" parent="1" vertex="1">
          <mxGeometry x="370" y="-1040" width="1340" height="240" as="geometry" />
        </mxCell>
        <mxCell id="N7zTeuolgDiuBjq7Ixwe-49" value="&lt;h3&gt;&lt;i style=&quot;&quot;&gt;&lt;font style=&quot;font-size: 18px;&quot;&gt;Указать название товара&lt;/font&gt;&lt;/i&gt;&lt;/h3&gt;" style="ellipse;whiteSpace=wrap;html=1;fillColor=none;" parent="N7zTeuolgDiuBjq7Ixwe-48" vertex="1">
          <mxGeometry x="50" y="50" width="190" height="140" as="geometry" />
        </mxCell>
        <mxCell id="N7zTeuolgDiuBjq7Ixwe-50" value="&lt;h3&gt;&lt;i&gt;&lt;font style=&quot;font-size: 18px;&quot;&gt;Указать&amp;nbsp;&lt;/font&gt;&lt;/i&gt;&lt;/h3&gt;&lt;h3&gt;&lt;b style=&quot;background-color: initial; font-size: 18px;&quot;&gt;&lt;i&gt;количество&amp;nbsp;&lt;/i&gt;&lt;/b&gt;&lt;/h3&gt;&lt;div style=&quot;font-size: 18px;&quot;&gt;&lt;b style=&quot;&quot;&gt;&lt;i style=&quot;&quot;&gt;&lt;font style=&quot;font-size: 18px;&quot;&gt;товара&lt;/font&gt;&lt;/i&gt;&lt;/b&gt;&lt;/div&gt;" style="ellipse;whiteSpace=wrap;html=1;fillColor=none;" parent="N7zTeuolgDiuBjq7Ixwe-48" vertex="1">
          <mxGeometry x="330" y="50" width="190" height="140" as="geometry" />
        </mxCell>
        <mxCell id="N7zTeuolgDiuBjq7Ixwe-51" value="&lt;h3&gt;&lt;i&gt;&lt;font style=&quot;font-size: 18px;&quot;&gt;Выбрать&amp;nbsp;&lt;/font&gt;&lt;/i&gt;&lt;b style=&quot;background-color: initial; font-size: 12px;&quot;&gt;&lt;i&gt;&lt;font style=&quot;font-size: 18px;&quot;&gt;категорию товара&lt;/font&gt;&lt;/i&gt;&lt;/b&gt;&lt;/h3&gt;" style="ellipse;whiteSpace=wrap;html=1;fillColor=none;" parent="N7zTeuolgDiuBjq7Ixwe-48" vertex="1">
          <mxGeometry x="610" y="50" width="200" height="140" as="geometry" />
        </mxCell>
        <mxCell id="N7zTeuolgDiuBjq7Ixwe-55" value="&lt;font style=&quot;font-size: 18px;&quot;&gt;&lt;b style=&quot;&quot;&gt;&lt;i style=&quot;&quot;&gt;Добавить&amp;nbsp;&lt;/i&gt;&lt;/b&gt;&lt;/font&gt;&lt;div style=&quot;font-size: 18px;&quot;&gt;&lt;font style=&quot;font-size: 18px;&quot;&gt;&lt;b style=&quot;&quot;&gt;&lt;i style=&quot;&quot;&gt;категорию&lt;/i&gt;&lt;/b&gt;&lt;/font&gt;&lt;/div&gt;" style="ellipse;whiteSpace=wrap;html=1;fillColor=none;" parent="N7zTeuolgDiuBjq7Ixwe-48" vertex="1">
          <mxGeometry x="1090" y="45" width="210" height="150" as="geometry" />
        </mxCell>
        <mxCell id="KNICd4RD22kGit39kZNk-2" value="" style="endArrow=block;dashed=1;endFill=0;endSize=12;html=1;rounded=0;exitX=0;exitY=0.5;exitDx=0;exitDy=0;" parent="N7zTeuolgDiuBjq7Ixwe-48" source="N7zTeuolgDiuBjq7Ixwe-55" target="N7zTeuolgDiuBjq7Ixwe-51" edge="1">
          <mxGeometry width="160" relative="1" as="geometry">
            <mxPoint x="530" y="70" as="sourcePoint" />
            <mxPoint x="690" y="70" as="targetPoint" />
          </mxGeometry>
        </mxCell>
        <mxCell id="V-13CdCXcu-0_H58nN8q-23" value="&lt;span style=&quot;font-size: 18px;&quot;&gt;extends&lt;/span&gt;" style="edgeLabel;html=1;align=center;verticalAlign=middle;resizable=0;points=[];" vertex="1" connectable="0" parent="KNICd4RD22kGit39kZNk-2">
          <mxGeometry x="-0.0347" relative="1" as="geometry">
            <mxPoint x="1" as="offset" />
          </mxGeometry>
        </mxCell>
        <mxCell id="N7zTeuolgDiuBjq7Ixwe-62" value="" style="endArrow=block;dashed=1;endFill=0;endSize=12;html=1;rounded=0;" parent="1" edge="1">
          <mxGeometry width="160" relative="1" as="geometry">
            <mxPoint x="890" y="-290" as="sourcePoint" />
            <mxPoint x="1050" y="-290" as="targetPoint" />
          </mxGeometry>
        </mxCell>
        <mxCell id="N7zTeuolgDiuBjq7Ixwe-66" value="&lt;font style=&quot;font-size: 20px;&quot;&gt;Операции со списком&lt;/font&gt;" style="swimlane;whiteSpace=wrap;html=1;fillColor=#dae8fc;strokeColor=#6c8ebf;gradientColor=#7ea6e0;" parent="1" vertex="1">
          <mxGeometry x="2081" y="-130" width="400" height="960" as="geometry" />
        </mxCell>
        <mxCell id="N7zTeuolgDiuBjq7Ixwe-33" value="&lt;h3 style=&quot;text-align: center; font-size: 18px;&quot;&gt;&lt;font style=&quot;font-size: 18px;&quot;&gt;&lt;span style=&quot;background-color: initial;&quot;&gt;&lt;i&gt;&lt;b&gt;Установить напоминание&lt;br&gt;&lt;/b&gt;&lt;/i&gt;&lt;/span&gt;&lt;span style=&quot;background-color: initial;&quot;&gt;&lt;i&gt;&lt;b&gt;о покупке&amp;nbsp;&lt;/b&gt;&lt;/i&gt;&lt;/span&gt;&lt;/font&gt;&lt;i style=&quot;background-color: initial; font-weight: normal;&quot;&gt;&lt;b&gt;на определенную дату&amp;nbsp;&lt;/b&gt;&lt;/i&gt;&lt;/h3&gt;" style="ellipse;whiteSpace=wrap;html=1;fillColor=none;shadow=0;" parent="N7zTeuolgDiuBjq7Ixwe-66" vertex="1">
          <mxGeometry x="70" y="500" width="240" height="170" as="geometry" />
        </mxCell>
        <mxCell id="N7zTeuolgDiuBjq7Ixwe-10" value="&lt;font style=&quot;font-size: 18px;&quot;&gt;&lt;b style=&quot;&quot;&gt;&lt;i style=&quot;&quot;&gt;Удалить&lt;/i&gt;&lt;/b&gt;&lt;/font&gt;&lt;div style=&quot;font-size: 18px;&quot;&gt;&lt;font style=&quot;font-size: 18px;&quot;&gt;&lt;b style=&quot;&quot;&gt;&lt;i style=&quot;&quot;&gt;список&amp;nbsp;&lt;/i&gt;&lt;/b&gt;&lt;/font&gt;&lt;/div&gt;" style="ellipse;whiteSpace=wrap;html=1;fillColor=none;shadow=0;" parent="N7zTeuolgDiuBjq7Ixwe-66" vertex="1">
          <mxGeometry x="70" y="270" width="240" height="160" as="geometry" />
        </mxCell>
        <mxCell id="F17il2IXGdjqRAkaUuqO-2" value="&lt;span style=&quot;font-size: 18px;&quot;&gt;&lt;b&gt;&lt;i&gt;Редактировать&lt;/i&gt;&lt;/b&gt;&lt;/span&gt;&lt;div&gt;&lt;span style=&quot;font-size: 18px;&quot;&gt;&lt;b&gt;&lt;i&gt;список&lt;/i&gt;&lt;/b&gt;&lt;/span&gt;&lt;/div&gt;" style="ellipse;whiteSpace=wrap;html=1;fillColor=none;shadow=0;" parent="N7zTeuolgDiuBjq7Ixwe-66" vertex="1">
          <mxGeometry x="62.5" y="65" width="240" height="160" as="geometry" />
        </mxCell>
        <mxCell id="CrFY21kCpMWypFzNiftc-7" value="&lt;font style=&quot;font-size: 18px;&quot;&gt;&lt;b&gt;&lt;i&gt;Открыть список&lt;/i&gt;&lt;/b&gt;&lt;/font&gt;" style="ellipse;whiteSpace=wrap;html=1;fillColor=none;" parent="N7zTeuolgDiuBjq7Ixwe-66" vertex="1">
          <mxGeometry x="62.5" y="736.88" width="240" height="150" as="geometry" />
        </mxCell>
        <mxCell id="N7zTeuolgDiuBjq7Ixwe-72" value="&lt;font style=&quot;font-size: 20px;&quot;&gt;Операции с товаром&lt;/font&gt;" style="swimlane;whiteSpace=wrap;html=1;fillColor=#f5f5f5;strokeColor=#666666;gradientColor=#b3b3b3;" parent="1" vertex="1">
          <mxGeometry x="3150" y="270" width="370" height="870" as="geometry" />
        </mxCell>
        <mxCell id="N7zTeuolgDiuBjq7Ixwe-8" value="&lt;font style=&quot;font-size: 18px;&quot;&gt;&lt;i style=&quot;&quot;&gt;&lt;b style=&quot;&quot;&gt;Редактировать&lt;/b&gt;&lt;/i&gt;&lt;/font&gt;&lt;div style=&quot;font-size: 18px;&quot;&gt;&lt;font style=&quot;font-size: 18px;&quot;&gt;&lt;i style=&quot;&quot;&gt;&lt;b style=&quot;&quot;&gt;товар в списке&lt;/b&gt;&lt;/i&gt;&lt;/font&gt;&lt;/div&gt;" style="ellipse;whiteSpace=wrap;html=1;fillColor=none;shadow=0;" parent="N7zTeuolgDiuBjq7Ixwe-72" vertex="1">
          <mxGeometry x="70" y="50" width="230" height="160" as="geometry" />
        </mxCell>
        <mxCell id="N7zTeuolgDiuBjq7Ixwe-29" value="&lt;font style=&quot;font-size: 18px;&quot;&gt;&lt;b style=&quot;&quot;&gt;&lt;i style=&quot;&quot;&gt;Удалить&lt;/i&gt;&lt;/b&gt;&lt;/font&gt;&lt;div style=&quot;font-size: 18px;&quot;&gt;&lt;font style=&quot;font-size: 18px;&quot;&gt;&lt;b style=&quot;&quot;&gt;&lt;i style=&quot;&quot;&gt;товар из списка&lt;/i&gt;&lt;/b&gt;&lt;/font&gt;&lt;/div&gt;" style="ellipse;whiteSpace=wrap;html=1;fillColor=none;" parent="N7zTeuolgDiuBjq7Ixwe-72" vertex="1">
          <mxGeometry x="60" y="260" width="250" height="161" as="geometry" />
        </mxCell>
        <mxCell id="N7zTeuolgDiuBjq7Ixwe-71" value="&lt;font style=&quot;font-size: 18px;&quot;&gt;&lt;b&gt;&lt;i&gt;Отметить как &quot;Приобретенный&quot;&lt;/i&gt;&lt;/b&gt;&lt;/font&gt;" style="ellipse;whiteSpace=wrap;html=1;fillColor=none;" parent="N7zTeuolgDiuBjq7Ixwe-72" vertex="1">
          <mxGeometry x="65" y="470" width="240" height="150" as="geometry" />
        </mxCell>
        <mxCell id="WhKFYp0LhZyAlXZoGGrV-29" value="&lt;font style=&quot;font-size: 18px;&quot;&gt;&lt;b&gt;&lt;i&gt;Добавить в&lt;/i&gt;&lt;/b&gt;&lt;/font&gt;&lt;div&gt;&lt;font style=&quot;font-size: 18px;&quot;&gt;&lt;b&gt;&lt;i&gt;&quot;Избранное&quot;&lt;/i&gt;&lt;/b&gt;&lt;/font&gt;&lt;/div&gt;" style="ellipse;whiteSpace=wrap;html=1;fillColor=none;" parent="N7zTeuolgDiuBjq7Ixwe-72" vertex="1">
          <mxGeometry x="65" y="670" width="240" height="150" as="geometry" />
        </mxCell>
        <mxCell id="CrFY21kCpMWypFzNiftc-1" value="" style="endArrow=block;dashed=1;endFill=0;endSize=12;html=1;rounded=0;exitX=0.014;exitY=0.687;exitDx=0;exitDy=0;exitPerimeter=0;entryX=0.96;entryY=0.252;entryDx=0;entryDy=0;entryPerimeter=0;" parent="1" source="N7zTeuolgDiuBjq7Ixwe-10" target="CrFY21kCpMWypFzNiftc-4" edge="1">
          <mxGeometry width="160" relative="1" as="geometry">
            <mxPoint x="1390" y="300" as="sourcePoint" />
            <mxPoint x="1550" y="300" as="targetPoint" />
          </mxGeometry>
        </mxCell>
        <mxCell id="7gSC9ELj662GBHFNSth6-9" value="&lt;span style=&quot;font-size: 18px;&quot;&gt;extends&lt;/span&gt;" style="edgeLabel;html=1;align=center;verticalAlign=middle;resizable=0;points=[];" parent="CrFY21kCpMWypFzNiftc-1" vertex="1" connectable="0">
          <mxGeometry x="-0.0292" y="1" relative="1" as="geometry">
            <mxPoint y="1" as="offset" />
          </mxGeometry>
        </mxCell>
        <mxCell id="CrFY21kCpMWypFzNiftc-2" value="" style="endArrow=block;dashed=1;endFill=0;endSize=12;html=1;rounded=0;exitX=0;exitY=0.5;exitDx=0;exitDy=0;entryX=1.014;entryY=0.563;entryDx=0;entryDy=0;entryPerimeter=0;" parent="1" source="N7zTeuolgDiuBjq7Ixwe-33" target="CrFY21kCpMWypFzNiftc-4" edge="1">
          <mxGeometry width="160" relative="1" as="geometry">
            <mxPoint x="1390" y="300" as="sourcePoint" />
            <mxPoint x="1430" y="250" as="targetPoint" />
          </mxGeometry>
        </mxCell>
        <mxCell id="7gSC9ELj662GBHFNSth6-7" value="&lt;span style=&quot;font-size: 18px;&quot;&gt;extends&lt;/span&gt;" style="edgeLabel;html=1;align=center;verticalAlign=middle;resizable=0;points=[];" parent="CrFY21kCpMWypFzNiftc-2" vertex="1" connectable="0">
          <mxGeometry x="-0.0079" y="-2" relative="1" as="geometry">
            <mxPoint as="offset" />
          </mxGeometry>
        </mxCell>
        <mxCell id="CrFY21kCpMWypFzNiftc-3" value="" style="endArrow=block;dashed=1;endFill=0;endSize=12;html=1;rounded=0;" parent="1" source="N7zTeuolgDiuBjq7Ixwe-11" target="CrFY21kCpMWypFzNiftc-7" edge="1">
          <mxGeometry width="160" relative="1" as="geometry">
            <mxPoint x="1390" y="300" as="sourcePoint" />
            <mxPoint x="1550" y="300" as="targetPoint" />
          </mxGeometry>
        </mxCell>
        <mxCell id="7gSC9ELj662GBHFNSth6-6" value="&lt;span style=&quot;font-size: 18px;&quot;&gt;extends&lt;/span&gt;" style="edgeLabel;html=1;align=center;verticalAlign=middle;resizable=0;points=[];" parent="CrFY21kCpMWypFzNiftc-3" vertex="1" connectable="0">
          <mxGeometry x="-0.107" y="4" relative="1" as="geometry">
            <mxPoint as="offset" />
          </mxGeometry>
        </mxCell>
        <mxCell id="CrFY21kCpMWypFzNiftc-5" value="&lt;font style=&quot;font-size: 18px;&quot;&gt;Выбор списка&lt;/font&gt;" style="swimlane;whiteSpace=wrap;html=1;fillColor=#dae8fc;strokeColor=#6c8ebf;gradientColor=#7ea6e0;" parent="1" vertex="1">
          <mxGeometry x="1520" y="-30" width="360" height="540" as="geometry" />
        </mxCell>
        <mxCell id="CrFY21kCpMWypFzNiftc-4" value="&lt;font size=&quot;1&quot; style=&quot;&quot;&gt;&lt;b style=&quot;&quot;&gt;&lt;i style=&quot;font-size: 20px;&quot;&gt;Выбрать список&lt;/i&gt;&lt;/b&gt;&lt;/font&gt;" style="ellipse;whiteSpace=wrap;html=1;fillColor=none;" parent="CrFY21kCpMWypFzNiftc-5" vertex="1">
          <mxGeometry x="50" y="300" width="240" height="185" as="geometry" />
        </mxCell>
        <mxCell id="F17il2IXGdjqRAkaUuqO-53" value="&lt;span style=&quot;font-size: 18px;&quot;&gt;&lt;b&gt;&lt;i&gt;Добавить новый список&lt;/i&gt;&lt;/b&gt;&lt;/span&gt;" style="ellipse;whiteSpace=wrap;html=1;fillColor=none;shadow=0;" parent="CrFY21kCpMWypFzNiftc-5" vertex="1">
          <mxGeometry x="50" y="50" width="240" height="170" as="geometry" />
        </mxCell>
        <mxCell id="CrFY21kCpMWypFzNiftc-6" value="" style="endArrow=block;dashed=1;endFill=0;endSize=12;html=1;rounded=0;exitX=0.014;exitY=0.455;exitDx=0;exitDy=0;exitPerimeter=0;" parent="1" source="CrFY21kCpMWypFzNiftc-4" target="N7zTeuolgDiuBjq7Ixwe-30" edge="1">
          <mxGeometry width="160" relative="1" as="geometry">
            <mxPoint x="1910" y="240" as="sourcePoint" />
            <mxPoint x="1900" y="270" as="targetPoint" />
            <Array as="points" />
          </mxGeometry>
        </mxCell>
        <mxCell id="V-13CdCXcu-0_H58nN8q-19" value="&lt;span style=&quot;font-size: 18px;&quot;&gt;extends&lt;/span&gt;" style="edgeLabel;html=1;align=center;verticalAlign=middle;resizable=0;points=[];" vertex="1" connectable="0" parent="CrFY21kCpMWypFzNiftc-6">
          <mxGeometry x="-0.0746" y="1" relative="1" as="geometry">
            <mxPoint x="1" as="offset" />
          </mxGeometry>
        </mxCell>
        <mxCell id="CrFY21kCpMWypFzNiftc-9" value="&lt;font style=&quot;font-size: 18px;&quot;&gt;&lt;i&gt;Выбор товара&lt;/i&gt;&lt;/font&gt;" style="swimlane;whiteSpace=wrap;html=1;fillColor=#f5f5f5;strokeColor=#666666;startSize=23;gradientColor=#b3b3b3;" parent="1" vertex="1">
          <mxGeometry x="2600" y="540" width="390" height="780" as="geometry" />
        </mxCell>
        <mxCell id="N7zTeuolgDiuBjq7Ixwe-73" value="&lt;font style=&quot;font-size: 18px;&quot;&gt;&lt;b&gt;&lt;i&gt;Выбрать товар&lt;/i&gt;&lt;/b&gt;&lt;/font&gt;" style="ellipse;whiteSpace=wrap;html=1;fillColor=none;" parent="CrFY21kCpMWypFzNiftc-9" vertex="1">
          <mxGeometry x="85.5" y="70" width="234" height="163.75" as="geometry" />
        </mxCell>
        <mxCell id="N7zTeuolgDiuBjq7Ixwe-11" value="&lt;font style=&quot;font-size: 18px;&quot;&gt;&lt;b style=&quot;&quot;&gt;&lt;i style=&quot;&quot;&gt;Фильтровать&lt;/i&gt;&lt;/b&gt;&lt;/font&gt;&lt;div style=&quot;font-size: 18px;&quot;&gt;&lt;font style=&quot;font-size: 18px;&quot;&gt;&lt;b style=&quot;&quot;&gt;&lt;i style=&quot;&quot;&gt;список по категориям&lt;/i&gt;&lt;/b&gt;&lt;/font&gt;&lt;/div&gt;" style="ellipse;whiteSpace=wrap;html=1;fillColor=none;" parent="CrFY21kCpMWypFzNiftc-9" vertex="1">
          <mxGeometry x="80" y="310" width="230" height="162.5" as="geometry" />
        </mxCell>
        <mxCell id="F17il2IXGdjqRAkaUuqO-77" value="&lt;font style=&quot;font-size: 18px;&quot;&gt;&lt;b&gt;&lt;i&gt;Добавить новый&amp;nbsp;&lt;/i&gt;&lt;/b&gt;&lt;/font&gt;&lt;div&gt;&lt;font style=&quot;font-size: 18px;&quot;&gt;&lt;b&gt;&lt;i&gt;товар&lt;/i&gt;&lt;/b&gt;&lt;/font&gt;&lt;/div&gt;" style="ellipse;whiteSpace=wrap;html=1;fillColor=none;" parent="CrFY21kCpMWypFzNiftc-9" vertex="1">
          <mxGeometry x="78" y="530" width="234" height="163.75" as="geometry" />
        </mxCell>
        <mxCell id="CrFY21kCpMWypFzNiftc-10" value="" style="endArrow=block;dashed=1;endFill=0;endSize=12;html=1;rounded=0;exitX=0;exitY=0.5;exitDx=0;exitDy=0;" parent="1" source="N7zTeuolgDiuBjq7Ixwe-73" target="CrFY21kCpMWypFzNiftc-7" edge="1">
          <mxGeometry width="160" relative="1" as="geometry">
            <mxPoint x="2140" y="310" as="sourcePoint" />
            <mxPoint x="2570" y="90" as="targetPoint" />
          </mxGeometry>
        </mxCell>
        <mxCell id="V-13CdCXcu-0_H58nN8q-26" value="&lt;span style=&quot;font-size: 18px;&quot;&gt;extends&lt;/span&gt;" style="edgeLabel;html=1;align=center;verticalAlign=middle;resizable=0;points=[];" vertex="1" connectable="0" parent="CrFY21kCpMWypFzNiftc-10">
          <mxGeometry x="-0.0026" relative="1" as="geometry">
            <mxPoint x="-1" as="offset" />
          </mxGeometry>
        </mxCell>
        <mxCell id="CrFY21kCpMWypFzNiftc-11" value="" style="endArrow=block;dashed=1;endFill=0;endSize=12;html=1;rounded=0;entryX=0.996;entryY=0.451;entryDx=0;entryDy=0;entryPerimeter=0;exitX=0.014;exitY=0.602;exitDx=0;exitDy=0;exitPerimeter=0;" parent="1" source="N7zTeuolgDiuBjq7Ixwe-29" target="N7zTeuolgDiuBjq7Ixwe-73" edge="1">
          <mxGeometry width="160" relative="1" as="geometry">
            <mxPoint x="3310" y="240" as="sourcePoint" />
            <mxPoint x="3470" y="240" as="targetPoint" />
          </mxGeometry>
        </mxCell>
        <mxCell id="7gSC9ELj662GBHFNSth6-12" value="&lt;span style=&quot;font-size: 18px;&quot;&gt;extends&lt;/span&gt;" style="edgeLabel;html=1;align=center;verticalAlign=middle;resizable=0;points=[];" parent="CrFY21kCpMWypFzNiftc-11" vertex="1" connectable="0">
          <mxGeometry x="-0.1428" y="1" relative="1" as="geometry">
            <mxPoint as="offset" />
          </mxGeometry>
        </mxCell>
        <mxCell id="CrFY21kCpMWypFzNiftc-12" value="" style="endArrow=block;dashed=1;endFill=0;endSize=12;html=1;rounded=0;entryX=0.954;entryY=0.783;entryDx=0;entryDy=0;entryPerimeter=0;exitX=-0.022;exitY=0.437;exitDx=0;exitDy=0;exitPerimeter=0;" parent="1" source="N7zTeuolgDiuBjq7Ixwe-71" target="N7zTeuolgDiuBjq7Ixwe-73" edge="1">
          <mxGeometry width="160" relative="1" as="geometry">
            <mxPoint x="3310" y="240" as="sourcePoint" />
            <mxPoint x="3470" y="240" as="targetPoint" />
          </mxGeometry>
        </mxCell>
        <mxCell id="7gSC9ELj662GBHFNSth6-11" value="&lt;span style=&quot;font-size: 18px;&quot;&gt;extends&lt;/span&gt;" style="edgeLabel;html=1;align=center;verticalAlign=middle;resizable=0;points=[];" parent="CrFY21kCpMWypFzNiftc-12" vertex="1" connectable="0">
          <mxGeometry x="-0.1952" y="-5" relative="1" as="geometry">
            <mxPoint y="1" as="offset" />
          </mxGeometry>
        </mxCell>
        <mxCell id="CrFY21kCpMWypFzNiftc-13" value="" style="endArrow=block;dashed=1;endFill=0;endSize=12;html=1;rounded=0;exitX=0.108;exitY=0.856;exitDx=0;exitDy=0;exitPerimeter=0;entryX=0.947;entryY=0.228;entryDx=0;entryDy=0;entryPerimeter=0;" parent="1" source="N7zTeuolgDiuBjq7Ixwe-8" target="N7zTeuolgDiuBjq7Ixwe-73" edge="1">
          <mxGeometry width="160" relative="1" as="geometry">
            <mxPoint x="3310" y="240" as="sourcePoint" />
            <mxPoint x="3100" y="30" as="targetPoint" />
          </mxGeometry>
        </mxCell>
        <mxCell id="7gSC9ELj662GBHFNSth6-13" value="&lt;span style=&quot;font-size: 18px;&quot;&gt;extends&lt;/span&gt;" style="edgeLabel;html=1;align=center;verticalAlign=middle;resizable=0;points=[];" parent="CrFY21kCpMWypFzNiftc-13" vertex="1" connectable="0">
          <mxGeometry x="-0.0901" y="3" relative="1" as="geometry">
            <mxPoint as="offset" />
          </mxGeometry>
        </mxCell>
        <mxCell id="WhKFYp0LhZyAlXZoGGrV-20" value="&lt;font style=&quot;font-size: 20px;&quot;&gt;Операции с избранным товаром&lt;/font&gt;" style="swimlane;whiteSpace=wrap;html=1;fillColor=#f5f5f5;strokeColor=#666666;gradientColor=#b3b3b3;" parent="1" vertex="1">
          <mxGeometry x="-100" y="870" width="910" height="280" as="geometry" />
        </mxCell>
        <mxCell id="WhKFYp0LhZyAlXZoGGrV-21" value="&lt;font style=&quot;font-size: 18px;&quot;&gt;&lt;b&gt;&lt;i&gt;Добавить новый&lt;/i&gt;&lt;/b&gt;&lt;/font&gt;&lt;div style=&quot;font-size: 18px;&quot;&gt;&lt;b&gt;&lt;i&gt;товар&lt;/i&gt;&lt;/b&gt;&lt;/div&gt;" style="ellipse;whiteSpace=wrap;html=1;fillColor=none;shadow=0;" parent="WhKFYp0LhZyAlXZoGGrV-20" vertex="1">
          <mxGeometry x="40" y="61" width="230" height="160" as="geometry" />
        </mxCell>
        <mxCell id="WhKFYp0LhZyAlXZoGGrV-22" value="&lt;font style=&quot;font-size: 18px;&quot;&gt;&lt;b style=&quot;&quot;&gt;&lt;i style=&quot;&quot;&gt;Удалить&lt;/i&gt;&lt;/b&gt;&lt;/font&gt;&lt;div style=&quot;font-size: 18px;&quot;&gt;&lt;font style=&quot;font-size: 18px;&quot;&gt;&lt;b style=&quot;&quot;&gt;&lt;i style=&quot;&quot;&gt;товар из списка&lt;/i&gt;&lt;/b&gt;&lt;/font&gt;&lt;/div&gt;" style="ellipse;whiteSpace=wrap;html=1;fillColor=none;" parent="WhKFYp0LhZyAlXZoGGrV-20" vertex="1">
          <mxGeometry x="340" y="60" width="250" height="161" as="geometry" />
        </mxCell>
        <mxCell id="F17il2IXGdjqRAkaUuqO-65" value="&lt;span style=&quot;font-size: 18px;&quot;&gt;&lt;b&gt;&lt;i&gt;Очистить &quot;Избранное&quot;&lt;/i&gt;&lt;/b&gt;&lt;/span&gt;" style="ellipse;whiteSpace=wrap;html=1;fillColor=none;" parent="WhKFYp0LhZyAlXZoGGrV-20" vertex="1">
          <mxGeometry x="650" y="51.5" width="220" height="180" as="geometry" />
        </mxCell>
        <mxCell id="WhKFYp0LhZyAlXZoGGrV-25" value="" style="endArrow=block;dashed=1;endFill=0;endSize=12;html=1;rounded=0;exitX=0.843;exitY=0.085;exitDx=0;exitDy=0;entryX=0.195;entryY=0.915;entryDx=0;entryDy=0;entryPerimeter=0;exitPerimeter=0;" parent="1" source="WhKFYp0LhZyAlXZoGGrV-21" target="N7zTeuolgDiuBjq7Ixwe-57" edge="1">
          <mxGeometry width="160" relative="1" as="geometry">
            <mxPoint x="450" y="529" as="sourcePoint" />
            <mxPoint x="690" y="300" as="targetPoint" />
          </mxGeometry>
        </mxCell>
        <mxCell id="V-13CdCXcu-0_H58nN8q-14" value="&lt;span style=&quot;font-size: 18px;&quot;&gt;extends&lt;/span&gt;" style="edgeLabel;html=1;align=center;verticalAlign=middle;resizable=0;points=[];" vertex="1" connectable="0" parent="WhKFYp0LhZyAlXZoGGrV-25">
          <mxGeometry x="-0.1533" y="-1" relative="1" as="geometry">
            <mxPoint as="offset" />
          </mxGeometry>
        </mxCell>
        <mxCell id="WhKFYp0LhZyAlXZoGGrV-27" value="" style="endArrow=block;dashed=1;endFill=0;endSize=12;html=1;rounded=0;" parent="1" source="WhKFYp0LhZyAlXZoGGrV-22" edge="1">
          <mxGeometry width="160" relative="1" as="geometry">
            <mxPoint x="460" y="539" as="sourcePoint" />
            <mxPoint x="365" y="680" as="targetPoint" />
          </mxGeometry>
        </mxCell>
        <mxCell id="V-13CdCXcu-0_H58nN8q-15" value="&lt;span style=&quot;font-size: 18px;&quot;&gt;extends&lt;/span&gt;" style="edgeLabel;html=1;align=center;verticalAlign=middle;resizable=0;points=[];" vertex="1" connectable="0" parent="WhKFYp0LhZyAlXZoGGrV-27">
          <mxGeometry x="-0.2103" y="4" relative="1" as="geometry">
            <mxPoint as="offset" />
          </mxGeometry>
        </mxCell>
        <mxCell id="WhKFYp0LhZyAlXZoGGrV-30" value="" style="endArrow=block;dashed=1;endFill=0;endSize=12;html=1;rounded=0;entryX=0.793;entryY=0.943;entryDx=0;entryDy=0;entryPerimeter=0;exitX=0.029;exitY=0.313;exitDx=0;exitDy=0;exitPerimeter=0;" parent="1" source="WhKFYp0LhZyAlXZoGGrV-29" target="N7zTeuolgDiuBjq7Ixwe-73" edge="1">
          <mxGeometry width="160" relative="1" as="geometry">
            <mxPoint x="3209" y="395" as="sourcePoint" />
            <mxPoint x="3019" y="190" as="targetPoint" />
          </mxGeometry>
        </mxCell>
        <mxCell id="WhKFYp0LhZyAlXZoGGrV-31" value="&lt;span style=&quot;font-size: 18px;&quot;&gt;extends&lt;/span&gt;" style="edgeLabel;html=1;align=center;verticalAlign=middle;resizable=0;points=[];" parent="WhKFYp0LhZyAlXZoGGrV-30" vertex="1" connectable="0">
          <mxGeometry x="-0.1952" y="-5" relative="1" as="geometry">
            <mxPoint y="1" as="offset" />
          </mxGeometry>
        </mxCell>
        <mxCell id="WhKFYp0LhZyAlXZoGGrV-103" value="&lt;span style=&quot;font-size: 20px;&quot;&gt;Операции с историей купленного товара&lt;/span&gt;" style="swimlane;whiteSpace=wrap;html=1;fillColor=#dae8fc;gradientColor=#7ea6e0;strokeColor=#6c8ebf;" parent="1" vertex="1">
          <mxGeometry x="920" y="870" width="650" height="280" as="geometry" />
        </mxCell>
        <mxCell id="WhKFYp0LhZyAlXZoGGrV-104" value="&lt;span style=&quot;font-size: 18px;&quot;&gt;&lt;b&gt;&lt;i&gt;Очистить Историю&lt;/i&gt;&lt;/b&gt;&lt;/span&gt;" style="ellipse;whiteSpace=wrap;html=1;fillColor=none;" parent="WhKFYp0LhZyAlXZoGGrV-103" vertex="1">
          <mxGeometry x="60" y="70" width="220" height="180" as="geometry" />
        </mxCell>
        <mxCell id="F17il2IXGdjqRAkaUuqO-62" value="&lt;span style=&quot;font-size: 18px;&quot;&gt;&lt;b&gt;&lt;i&gt;Удалить выделенное&lt;/i&gt;&lt;/b&gt;&lt;/span&gt;" style="ellipse;whiteSpace=wrap;html=1;fillColor=none;" parent="WhKFYp0LhZyAlXZoGGrV-103" vertex="1">
          <mxGeometry x="362.5" y="75" width="225" height="170" as="geometry" />
        </mxCell>
        <mxCell id="WhKFYp0LhZyAlXZoGGrV-106" value="" style="endArrow=block;dashed=1;endFill=0;endSize=12;html=1;rounded=0;entryX=0.408;entryY=1;entryDx=0;entryDy=0;entryPerimeter=0;" parent="1" source="WhKFYp0LhZyAlXZoGGrV-104" target="N7zTeuolgDiuBjq7Ixwe-69" edge="1">
          <mxGeometry width="160" relative="1" as="geometry">
            <mxPoint x="1836" y="1302" as="sourcePoint" />
            <mxPoint x="1730" y="1050" as="targetPoint" />
          </mxGeometry>
        </mxCell>
        <mxCell id="V-13CdCXcu-0_H58nN8q-17" value="&lt;span style=&quot;font-size: 18px;&quot;&gt;extends&lt;/span&gt;" style="edgeLabel;html=1;align=center;verticalAlign=middle;resizable=0;points=[];" vertex="1" connectable="0" parent="WhKFYp0LhZyAlXZoGGrV-106">
          <mxGeometry x="-0.2455" relative="1" as="geometry">
            <mxPoint x="-1" as="offset" />
          </mxGeometry>
        </mxCell>
        <mxCell id="rBp_AxMCNBrCWV1uSdOx-6" value="&lt;font style=&quot;font-size: 20px;&quot;&gt;Редактирование товара&lt;/font&gt;" style="swimlane;whiteSpace=wrap;html=1;fillColor=#f5f5f5;strokeColor=#666666;startSize=23;gradientColor=#b3b3b3;" parent="1" vertex="1">
          <mxGeometry x="3040" y="-160" width="952" height="320" as="geometry" />
        </mxCell>
        <mxCell id="rBp_AxMCNBrCWV1uSdOx-7" value="&lt;font style=&quot;font-size: 18px;&quot;&gt;&lt;b&gt;&lt;i&gt;Редактировать категорию&lt;/i&gt;&lt;/b&gt;&lt;/font&gt;" style="ellipse;whiteSpace=wrap;html=1;fillColor=none;" parent="rBp_AxMCNBrCWV1uSdOx-6" vertex="1">
          <mxGeometry x="678" y="78.75" width="234" height="163.75" as="geometry" />
        </mxCell>
        <mxCell id="rBp_AxMCNBrCWV1uSdOx-8" value="&lt;span style=&quot;font-size: 18px;&quot;&gt;&lt;b&gt;&lt;i&gt;Редактировать количество&lt;/i&gt;&lt;/b&gt;&lt;/span&gt;" style="ellipse;whiteSpace=wrap;html=1;fillColor=none;" parent="rBp_AxMCNBrCWV1uSdOx-6" vertex="1">
          <mxGeometry x="368" y="75" width="225" height="170" as="geometry" />
        </mxCell>
        <mxCell id="rBp_AxMCNBrCWV1uSdOx-9" value="&lt;span style=&quot;font-size: 18px;&quot;&gt;&lt;b&gt;&lt;i&gt;Редактировать название&lt;/i&gt;&lt;/b&gt;&lt;/span&gt;&lt;div&gt;&lt;span style=&quot;font-size: 18px;&quot;&gt;&lt;b&gt;&lt;i&gt;товара&lt;/i&gt;&lt;/b&gt;&lt;/span&gt;&lt;/div&gt;" style="ellipse;whiteSpace=wrap;html=1;fillColor=none;" parent="rBp_AxMCNBrCWV1uSdOx-6" vertex="1">
          <mxGeometry x="38" y="78.75" width="230" height="162.5" as="geometry" />
        </mxCell>
        <mxCell id="rBp_AxMCNBrCWV1uSdOx-13" value="" style="endArrow=block;dashed=1;endFill=0;endSize=12;html=1;rounded=0;exitX=0.284;exitY=0.961;exitDx=0;exitDy=0;exitPerimeter=0;entryX=0.934;entryY=0.204;entryDx=0;entryDy=0;entryPerimeter=0;" parent="1" source="rBp_AxMCNBrCWV1uSdOx-7" target="N7zTeuolgDiuBjq7Ixwe-8" edge="1">
          <mxGeometry width="160" relative="1" as="geometry">
            <mxPoint x="4151" y="-480" as="sourcePoint" />
            <mxPoint x="3830" y="-317" as="targetPoint" />
          </mxGeometry>
        </mxCell>
        <mxCell id="rBp_AxMCNBrCWV1uSdOx-14" value="&lt;span style=&quot;font-size: 18px;&quot;&gt;extends&lt;/span&gt;" style="edgeLabel;html=1;align=center;verticalAlign=middle;resizable=0;points=[];" parent="rBp_AxMCNBrCWV1uSdOx-13" vertex="1" connectable="0">
          <mxGeometry x="-0.0901" y="3" relative="1" as="geometry">
            <mxPoint as="offset" />
          </mxGeometry>
        </mxCell>
        <mxCell id="rBp_AxMCNBrCWV1uSdOx-15" value="" style="endArrow=block;dashed=1;endFill=0;endSize=12;html=1;rounded=0;exitX=0.448;exitY=1.017;exitDx=0;exitDy=0;exitPerimeter=0;entryX=0.565;entryY=0.063;entryDx=0;entryDy=0;entryPerimeter=0;" parent="1" source="rBp_AxMCNBrCWV1uSdOx-8" target="N7zTeuolgDiuBjq7Ixwe-8" edge="1">
          <mxGeometry width="160" relative="1" as="geometry">
            <mxPoint x="3871" y="-449" as="sourcePoint" />
            <mxPoint x="3550" y="-286" as="targetPoint" />
          </mxGeometry>
        </mxCell>
        <mxCell id="rBp_AxMCNBrCWV1uSdOx-16" value="&lt;span style=&quot;font-size: 18px;&quot;&gt;extends&lt;/span&gt;" style="edgeLabel;html=1;align=center;verticalAlign=middle;resizable=0;points=[];" parent="rBp_AxMCNBrCWV1uSdOx-15" vertex="1" connectable="0">
          <mxGeometry x="-0.0901" y="3" relative="1" as="geometry">
            <mxPoint as="offset" />
          </mxGeometry>
        </mxCell>
        <mxCell id="rBp_AxMCNBrCWV1uSdOx-17" value="" style="endArrow=block;dashed=1;endFill=0;endSize=12;html=1;rounded=0;exitX=0.5;exitY=1;exitDx=0;exitDy=0;entryX=0.201;entryY=0.115;entryDx=0;entryDy=0;entryPerimeter=0;" parent="1" source="rBp_AxMCNBrCWV1uSdOx-9" target="N7zTeuolgDiuBjq7Ixwe-8" edge="1">
          <mxGeometry width="160" relative="1" as="geometry">
            <mxPoint x="3641" y="-350" as="sourcePoint" />
            <mxPoint x="3320" y="-187" as="targetPoint" />
          </mxGeometry>
        </mxCell>
        <mxCell id="V-13CdCXcu-0_H58nN8q-29" value="&lt;span style=&quot;font-size: 18px;&quot;&gt;extends&lt;/span&gt;" style="edgeLabel;html=1;align=center;verticalAlign=middle;resizable=0;points=[];" vertex="1" connectable="0" parent="rBp_AxMCNBrCWV1uSdOx-17">
          <mxGeometry x="0.0154" y="2" relative="1" as="geometry">
            <mxPoint as="offset" />
          </mxGeometry>
        </mxCell>
        <mxCell id="F17il2IXGdjqRAkaUuqO-3" value="" style="endArrow=block;dashed=1;endFill=0;endSize=12;html=1;rounded=0;entryX=0.808;entryY=0.073;entryDx=0;entryDy=0;exitX=0.052;exitY=0.733;exitDx=0;exitDy=0;exitPerimeter=0;entryPerimeter=0;" parent="1" source="F17il2IXGdjqRAkaUuqO-2" target="CrFY21kCpMWypFzNiftc-4" edge="1">
          <mxGeometry width="160" relative="1" as="geometry">
            <mxPoint x="2363" y="-10" as="sourcePoint" />
            <mxPoint x="2125" y="197" as="targetPoint" />
          </mxGeometry>
        </mxCell>
        <mxCell id="V-13CdCXcu-0_H58nN8q-24" value="&lt;span style=&quot;font-size: 18px;&quot;&gt;extends&lt;/span&gt;" style="edgeLabel;html=1;align=center;verticalAlign=middle;resizable=0;points=[];" vertex="1" connectable="0" parent="F17il2IXGdjqRAkaUuqO-3">
          <mxGeometry x="-0.0702" y="5" relative="1" as="geometry">
            <mxPoint as="offset" />
          </mxGeometry>
        </mxCell>
        <mxCell id="F17il2IXGdjqRAkaUuqO-14" value="&lt;span style=&quot;font-size: 20px;&quot;&gt;Расширенные операции со списком&lt;/span&gt;" style="swimlane;whiteSpace=wrap;html=1;fillColor=#dae8fc;strokeColor=#6c8ebf;gradientColor=#7ea6e0;" parent="1" vertex="1">
          <mxGeometry x="2600" y="-80" width="360" height="580" as="geometry" />
        </mxCell>
        <mxCell id="nMiqJZZhMJwSlXX7Ouv_-22" value="&lt;h3 style=&quot;text-align: center; font-size: 18px;&quot;&gt;&lt;i&gt;Выбрать дату&lt;/i&gt;&lt;/h3&gt;" style="ellipse;whiteSpace=wrap;html=1;fillColor=none;shadow=0;" parent="F17il2IXGdjqRAkaUuqO-14" vertex="1">
          <mxGeometry x="60" y="350" width="240" height="170" as="geometry" />
        </mxCell>
        <mxCell id="F17il2IXGdjqRAkaUuqO-34" value="&lt;h3&gt;&lt;span style=&quot;font-size: 18px;&quot;&gt;&lt;i&gt;Редактировать&lt;/i&gt;&lt;/span&gt;&lt;/h3&gt;&lt;div&gt;&lt;span style=&quot;font-size: 18px;&quot;&gt;&lt;i&gt;название списка&lt;/i&gt;&lt;/span&gt;&lt;/div&gt;&lt;div&gt;&lt;span style=&quot;font-size: 18px;&quot;&gt;&lt;i&gt;&lt;br&gt;&lt;/i&gt;&lt;/span&gt;&lt;/div&gt;" style="ellipse;whiteSpace=wrap;html=1;fillColor=none;" parent="F17il2IXGdjqRAkaUuqO-14" vertex="1">
          <mxGeometry x="67.5" y="100" width="225" height="170" as="geometry" />
        </mxCell>
        <mxCell id="F17il2IXGdjqRAkaUuqO-24" value="" style="endArrow=block;dashed=1;endFill=0;endSize=12;html=1;rounded=0;exitX=0;exitY=0.5;exitDx=0;exitDy=0;" parent="1" source="F17il2IXGdjqRAkaUuqO-34" target="F17il2IXGdjqRAkaUuqO-2" edge="1">
          <mxGeometry width="160" relative="1" as="geometry">
            <mxPoint x="3217" y="-343" as="sourcePoint" />
            <mxPoint x="2683" y="-22" as="targetPoint" />
          </mxGeometry>
        </mxCell>
        <mxCell id="F17il2IXGdjqRAkaUuqO-25" value="&lt;span style=&quot;font-size: 18px;&quot;&gt;extends&lt;/span&gt;" style="edgeLabel;html=1;align=center;verticalAlign=middle;resizable=0;points=[];" parent="F17il2IXGdjqRAkaUuqO-24" vertex="1" connectable="0">
          <mxGeometry x="-0.0292" y="1" relative="1" as="geometry">
            <mxPoint y="1" as="offset" />
          </mxGeometry>
        </mxCell>
        <mxCell id="F17il2IXGdjqRAkaUuqO-32" value="" style="endArrow=block;dashed=1;endFill=0;endSize=12;html=1;rounded=0;exitX=0;exitY=0.5;exitDx=0;exitDy=0;entryX=0.946;entryY=0.294;entryDx=0;entryDy=0;entryPerimeter=0;" parent="1" source="nMiqJZZhMJwSlXX7Ouv_-22" target="N7zTeuolgDiuBjq7Ixwe-33" edge="1">
          <mxGeometry width="160" relative="1" as="geometry">
            <mxPoint x="3285" y="26" as="sourcePoint" />
            <mxPoint x="3146" y="221" as="targetPoint" />
          </mxGeometry>
        </mxCell>
        <mxCell id="F17il2IXGdjqRAkaUuqO-33" value="&lt;span style=&quot;font-size: 18px;&quot;&gt;extends&lt;/span&gt;" style="edgeLabel;html=1;align=center;verticalAlign=middle;resizable=0;points=[];" parent="F17il2IXGdjqRAkaUuqO-32" vertex="1" connectable="0">
          <mxGeometry x="-0.0292" y="1" relative="1" as="geometry">
            <mxPoint y="1" as="offset" />
          </mxGeometry>
        </mxCell>
        <mxCell id="F17il2IXGdjqRAkaUuqO-56" value="" style="endArrow=block;dashed=1;endFill=0;endSize=12;html=1;rounded=0;exitX=0.042;exitY=0.588;exitDx=0;exitDy=0;exitPerimeter=0;entryX=0.923;entryY=0.19;entryDx=0;entryDy=0;entryPerimeter=0;" parent="1" source="F17il2IXGdjqRAkaUuqO-53" target="N7zTeuolgDiuBjq7Ixwe-30" edge="1">
          <mxGeometry width="160" relative="1" as="geometry">
            <mxPoint x="1949" y="430" as="sourcePoint" />
            <mxPoint x="1339" y="276" as="targetPoint" />
            <Array as="points" />
          </mxGeometry>
        </mxCell>
        <mxCell id="V-13CdCXcu-0_H58nN8q-20" value="&lt;span style=&quot;font-size: 18px;&quot;&gt;extends&lt;/span&gt;" style="edgeLabel;html=1;align=center;verticalAlign=middle;resizable=0;points=[];" vertex="1" connectable="0" parent="F17il2IXGdjqRAkaUuqO-56">
          <mxGeometry x="-0.0846" y="-4" relative="1" as="geometry">
            <mxPoint as="offset" />
          </mxGeometry>
        </mxCell>
        <mxCell id="F17il2IXGdjqRAkaUuqO-58" value="" style="endArrow=block;dashed=1;endFill=0;endSize=12;html=1;rounded=0;exitX=0.002;exitY=0.37;exitDx=0;exitDy=0;exitPerimeter=0;entryX=0.811;entryY=0.921;entryDx=0;entryDy=0;entryPerimeter=0;" parent="1" source="CrFY21kCpMWypFzNiftc-7" target="CrFY21kCpMWypFzNiftc-4" edge="1">
          <mxGeometry width="160" relative="1" as="geometry">
            <mxPoint x="2480" y="431" as="sourcePoint" />
            <mxPoint x="2143" y="279" as="targetPoint" />
          </mxGeometry>
        </mxCell>
        <mxCell id="F17il2IXGdjqRAkaUuqO-59" value="&lt;span style=&quot;font-size: 18px;&quot;&gt;extends&lt;/span&gt;" style="edgeLabel;html=1;align=center;verticalAlign=middle;resizable=0;points=[];" parent="F17il2IXGdjqRAkaUuqO-58" vertex="1" connectable="0">
          <mxGeometry x="0.0288" relative="1" as="geometry">
            <mxPoint x="1" as="offset" />
          </mxGeometry>
        </mxCell>
        <mxCell id="F17il2IXGdjqRAkaUuqO-63" value="" style="endArrow=block;dashed=1;endFill=0;endSize=12;html=1;rounded=0;entryX=0.74;entryY=0.991;entryDx=0;entryDy=0;entryPerimeter=0;exitX=0.5;exitY=0;exitDx=0;exitDy=0;" parent="1" source="F17il2IXGdjqRAkaUuqO-62" target="N7zTeuolgDiuBjq7Ixwe-69" edge="1">
          <mxGeometry width="160" relative="1" as="geometry">
            <mxPoint x="1368" y="1026" as="sourcePoint" />
            <mxPoint x="1297" y="685" as="targetPoint" />
          </mxGeometry>
        </mxCell>
        <mxCell id="V-13CdCXcu-0_H58nN8q-18" value="&lt;span style=&quot;font-size: 18px;&quot;&gt;extends&lt;/span&gt;" style="edgeLabel;html=1;align=center;verticalAlign=middle;resizable=0;points=[];" vertex="1" connectable="0" parent="F17il2IXGdjqRAkaUuqO-63">
          <mxGeometry x="-0.2117" y="-5" relative="1" as="geometry">
            <mxPoint as="offset" />
          </mxGeometry>
        </mxCell>
        <mxCell id="F17il2IXGdjqRAkaUuqO-66" value="" style="endArrow=block;dashed=1;endFill=0;endSize=12;html=1;rounded=0;exitX=0.218;exitY=0.055;exitDx=0;exitDy=0;entryX=0.798;entryY=0.925;entryDx=0;entryDy=0;exitPerimeter=0;entryPerimeter=0;" parent="1" source="F17il2IXGdjqRAkaUuqO-65" target="N7zTeuolgDiuBjq7Ixwe-57" edge="1">
          <mxGeometry width="160" relative="1" as="geometry">
            <mxPoint x="123" y="944" as="sourcePoint" />
            <mxPoint x="309" y="679" as="targetPoint" />
          </mxGeometry>
        </mxCell>
        <mxCell id="V-13CdCXcu-0_H58nN8q-16" value="&lt;span style=&quot;font-size: 18px;&quot;&gt;extends&lt;/span&gt;" style="edgeLabel;html=1;align=center;verticalAlign=middle;resizable=0;points=[];" vertex="1" connectable="0" parent="F17il2IXGdjqRAkaUuqO-66">
          <mxGeometry x="-0.239" y="1" relative="1" as="geometry">
            <mxPoint as="offset" />
          </mxGeometry>
        </mxCell>
        <mxCell id="F17il2IXGdjqRAkaUuqO-88" value="" style="endArrow=block;dashed=1;endFill=0;endSize=12;html=1;rounded=0;entryX=0.777;entryY=0.966;entryDx=0;entryDy=0;entryPerimeter=0;exitX=0.121;exitY=0.198;exitDx=0;exitDy=0;exitPerimeter=0;" parent="1" source="F17il2IXGdjqRAkaUuqO-77" target="CrFY21kCpMWypFzNiftc-7" edge="1">
          <mxGeometry width="160" relative="1" as="geometry">
            <mxPoint x="3769" y="1052" as="sourcePoint" />
            <mxPoint x="3121" y="764" as="targetPoint" />
          </mxGeometry>
        </mxCell>
        <mxCell id="F17il2IXGdjqRAkaUuqO-89" value="&lt;span style=&quot;font-size: 18px;&quot;&gt;extends&lt;/span&gt;" style="edgeLabel;html=1;align=center;verticalAlign=middle;resizable=0;points=[];" parent="F17il2IXGdjqRAkaUuqO-88" vertex="1" connectable="0">
          <mxGeometry x="-0.1952" y="-5" relative="1" as="geometry">
            <mxPoint y="1" as="offset" />
          </mxGeometry>
        </mxCell>
        <mxCell id="WhKFYp0LhZyAlXZoGGrV-62" value="" style="endArrow=block;dashed=1;endFill=0;endSize=12;html=1;rounded=0;" parent="1" source="WhKFYp0LhZyAlXZoGGrV-61" edge="1">
          <mxGeometry width="160" relative="1" as="geometry">
            <mxPoint x="1172" y="-31" as="sourcePoint" />
            <mxPoint x="20" y="199.81481481481478" as="targetPoint" />
          </mxGeometry>
        </mxCell>
        <mxCell id="WhKFYp0LhZyAlXZoGGrV-63" value="&lt;font style=&quot;font-size: 18px;&quot;&gt;extends&lt;/font&gt;" style="edgeLabel;html=1;align=center;verticalAlign=middle;resizable=0;points=[];" parent="WhKFYp0LhZyAlXZoGGrV-62" vertex="1" connectable="0">
          <mxGeometry x="-0.0664" y="3" relative="1" as="geometry">
            <mxPoint as="offset" />
          </mxGeometry>
        </mxCell>
        <mxCell id="N7zTeuolgDiuBjq7Ixwe-39" value="" style="endArrow=block;dashed=1;endFill=0;endSize=12;html=1;rounded=0;exitX=0.102;exitY=0.82;exitDx=0;exitDy=0;entryX=1;entryY=0.3333333333333333;entryDx=0;entryDy=0;entryPerimeter=0;exitPerimeter=0;" parent="1" source="N7zTeuolgDiuBjq7Ixwe-9" edge="1">
          <mxGeometry width="160" relative="1" as="geometry">
            <mxPoint x="690" y="180" as="sourcePoint" />
            <mxPoint x="20" y="218.33333333333303" as="targetPoint" />
          </mxGeometry>
        </mxCell>
        <mxCell id="N7zTeuolgDiuBjq7Ixwe-41" value="&lt;span style=&quot;font-size: 18px;&quot;&gt;extends&lt;/span&gt;" style="edgeLabel;html=1;align=center;verticalAlign=middle;resizable=0;points=[];" parent="N7zTeuolgDiuBjq7Ixwe-39" vertex="1" connectable="0">
          <mxGeometry x="0.0189" relative="1" as="geometry">
            <mxPoint as="offset" />
          </mxGeometry>
        </mxCell>
        <mxCell id="N7zTeuolgDiuBjq7Ixwe-32" value="&lt;span style=&quot;font-size: 18px;&quot;&gt;extends&lt;/span&gt;" style="endArrow=block;dashed=1;endFill=0;endSize=12;html=1;rounded=0;exitX=0;exitY=0.5;exitDx=0;exitDy=0;" parent="1" source="N7zTeuolgDiuBjq7Ixwe-30" edge="1">
          <mxGeometry width="160" relative="1" as="geometry">
            <mxPoint x="460" y="50" as="sourcePoint" />
            <mxPoint x="30" y="230" as="targetPoint" />
          </mxGeometry>
        </mxCell>
        <mxCell id="N7zTeuolgDiuBjq7Ixwe-67" value="" style="endArrow=block;dashed=1;endFill=0;endSize=12;html=1;rounded=0;exitX=0.091;exitY=0.189;exitDx=0;exitDy=0;exitPerimeter=0;" parent="1" source="N7zTeuolgDiuBjq7Ixwe-57" edge="1">
          <mxGeometry width="160" relative="1" as="geometry">
            <mxPoint x="760" y="510" as="sourcePoint" />
            <mxPoint x="20" y="318.4663134282182" as="targetPoint" />
          </mxGeometry>
        </mxCell>
        <mxCell id="V-13CdCXcu-0_H58nN8q-13" value="&lt;span style=&quot;font-size: 18px;&quot;&gt;extends&lt;/span&gt;" style="edgeLabel;html=1;align=center;verticalAlign=middle;resizable=0;points=[];" vertex="1" connectable="0" parent="N7zTeuolgDiuBjq7Ixwe-67">
          <mxGeometry x="-0.0034" y="3" relative="1" as="geometry">
            <mxPoint as="offset" />
          </mxGeometry>
        </mxCell>
        <mxCell id="N7zTeuolgDiuBjq7Ixwe-75" value="&lt;br&gt;&lt;span style=&quot;color: rgb(0, 0, 0); font-family: Helvetica; font-size: 18px; font-style: normal; font-variant-ligatures: normal; font-variant-caps: normal; font-weight: 400; letter-spacing: normal; orphans: 2; text-align: center; text-indent: 0px; text-transform: none; widows: 2; word-spacing: 0px; -webkit-text-stroke-width: 0px; white-space: nowrap; background-color: rgb(255, 255, 255); text-decoration-thickness: initial; text-decoration-style: initial; text-decoration-color: initial; display: inline !important; float: none;&quot;&gt;extends&lt;/span&gt;" style="endArrow=block;dashed=1;endFill=0;endSize=12;html=1;rounded=0;" parent="1" source="N7zTeuolgDiuBjq7Ixwe-69" edge="1">
          <mxGeometry width="160" relative="1" as="geometry">
            <mxPoint x="790" y="330" as="sourcePoint" />
            <mxPoint x="20" y="277.46555118110246" as="targetPoint" />
            <Array as="points" />
          </mxGeometry>
        </mxCell>
        <mxCell id="V-13CdCXcu-0_H58nN8q-1" value="&lt;br&gt;&lt;span style=&quot;color: rgb(0, 0, 0); font-family: Helvetica; font-size: 18px; font-style: normal; font-variant-ligatures: normal; font-variant-caps: normal; font-weight: 400; letter-spacing: normal; orphans: 2; text-align: center; text-indent: 0px; text-transform: none; widows: 2; word-spacing: 0px; -webkit-text-stroke-width: 0px; white-space: nowrap; background-color: rgb(255, 255, 255); text-decoration-thickness: initial; text-decoration-style: initial; text-decoration-color: initial; display: inline !important; float: none;&quot;&gt;extends&lt;/span&gt;" style="endArrow=block;dashed=1;endFill=0;endSize=12;html=1;rounded=0;exitX=0.092;exitY=0.837;exitDx=0;exitDy=0;entryX=1;entryY=0.3333333333333333;entryDx=0;entryDy=0;entryPerimeter=0;exitPerimeter=0;" edge="1" parent="1" source="CrFY21kCpMWypFzNiftc-14">
          <mxGeometry width="160" relative="1" as="geometry">
            <mxPoint x="710" y="-57" as="sourcePoint" />
            <mxPoint x="30" y="228" as="targetPoint" />
          </mxGeometry>
        </mxCell>
        <mxCell id="V-13CdCXcu-0_H58nN8q-4" value="Пользователь" style="shape=umlActor;verticalLabelPosition=bottom;verticalAlign=top;html=1;fillColor=none;" vertex="1" parent="1">
          <mxGeometry x="-120" y="115" width="130" height="250" as="geometry" />
        </mxCell>
        <mxCell id="V-13CdCXcu-0_H58nN8q-32" value="" style="endArrow=block;dashed=1;endFill=0;endSize=12;html=1;rounded=0;exitX=0.553;exitY=-0.01;exitDx=0;exitDy=0;exitPerimeter=0;" edge="1" parent="1" source="N7zTeuolgDiuBjq7Ixwe-27">
          <mxGeometry width="160" relative="1" as="geometry">
            <mxPoint x="1149" y="-51" as="sourcePoint" />
            <mxPoint x="801" y="-850" as="targetPoint" />
          </mxGeometry>
        </mxCell>
        <mxCell id="V-13CdCXcu-0_H58nN8q-36" value="&lt;font style=&quot;font-size: 18px;&quot;&gt;Include&lt;/font&gt;" style="edgeLabel;html=1;align=center;verticalAlign=middle;resizable=0;points=[];" vertex="1" connectable="0" parent="V-13CdCXcu-0_H58nN8q-32">
          <mxGeometry x="0.1044" y="-1" relative="1" as="geometry">
            <mxPoint as="offset" />
          </mxGeometry>
        </mxCell>
        <mxCell id="V-13CdCXcu-0_H58nN8q-33" value="" style="endArrow=block;dashed=1;endFill=0;endSize=12;html=1;rounded=0;entryX=0.589;entryY=1.009;entryDx=0;entryDy=0;entryPerimeter=0;" edge="1" parent="1" source="N7zTeuolgDiuBjq7Ixwe-27" target="N7zTeuolgDiuBjq7Ixwe-49">
          <mxGeometry width="160" relative="1" as="geometry">
            <mxPoint x="811" y="-591" as="sourcePoint" />
            <mxPoint x="811" y="-840" as="targetPoint" />
          </mxGeometry>
        </mxCell>
        <mxCell id="V-13CdCXcu-0_H58nN8q-37" value="&lt;span style=&quot;font-size: 18px;&quot;&gt;Include&lt;/span&gt;" style="edgeLabel;html=1;align=center;verticalAlign=middle;resizable=0;points=[];" vertex="1" connectable="0" parent="V-13CdCXcu-0_H58nN8q-33">
          <mxGeometry x="0.2395" relative="1" as="geometry">
            <mxPoint as="offset" />
          </mxGeometry>
        </mxCell>
        <mxCell id="V-13CdCXcu-0_H58nN8q-35" value="" style="endArrow=block;dashed=1;endFill=0;endSize=12;html=1;rounded=0;exitX=1;exitY=0;exitDx=0;exitDy=0;entryX=0.324;entryY=1.009;entryDx=0;entryDy=0;entryPerimeter=0;" edge="1" parent="1" source="N7zTeuolgDiuBjq7Ixwe-27" target="N7zTeuolgDiuBjq7Ixwe-51">
          <mxGeometry width="160" relative="1" as="geometry">
            <mxPoint x="811" y="-591" as="sourcePoint" />
            <mxPoint x="811" y="-840" as="targetPoint" />
          </mxGeometry>
        </mxCell>
        <mxCell id="V-13CdCXcu-0_H58nN8q-38" value="&lt;span style=&quot;font-size: 18px;&quot;&gt;Include&lt;/span&gt;" style="edgeLabel;html=1;align=center;verticalAlign=middle;resizable=0;points=[];" vertex="1" connectable="0" parent="V-13CdCXcu-0_H58nN8q-35">
          <mxGeometry x="0.4048" y="-4" relative="1" as="geometry">
            <mxPoint as="offset" />
          </mxGeometry>
        </mxCell>
        <mxCell id="V-13CdCXcu-0_H58nN8q-39" value="" style="endArrow=block;dashed=1;endFill=0;endSize=12;html=1;rounded=0;exitX=0.5;exitY=0;exitDx=0;exitDy=0;entryX=0.46;entryY=1.018;entryDx=0;entryDy=0;entryPerimeter=0;" edge="1" parent="1" source="N7zTeuolgDiuBjq7Ixwe-9" target="N7zTeuolgDiuBjq7Ixwe-27">
          <mxGeometry width="160" relative="1" as="geometry">
            <mxPoint x="871" y="-568" as="sourcePoint" />
            <mxPoint x="1055" y="-839" as="targetPoint" />
          </mxGeometry>
        </mxCell>
        <mxCell id="V-13CdCXcu-0_H58nN8q-41" value="&lt;span style=&quot;color: rgba(0, 0, 0, 0); font-family: monospace; font-size: 0px; text-align: start; background-color: rgb(251, 251, 251);&quot;&gt;%3CmxGraphModel%3E%3Croot%3E%3CmxCell%20id%3D%220%22%2F%3E%3CmxCell%20id%3D%221%22%20parent%3D%220%22%2F%3E%3CmxCell%20id%3D%222%22%20value%3D%22%26lt%3Bspan%20style%3D%26quot%3Bfont-size%3A%2018px%3B%26quot%3B%26gt%3BInclude%26lt%3B%2Fspan%26gt%3B%22%20style%3D%22edgeLabel%3Bhtml%3D1%3Balign%3Dcenter%3BverticalAlign%3Dmiddle%3Bresizable%3D0%3Bpoints%3D%5B%5D%3B%22%20vertex%3D%221%22%20connectable%3D%220%22%20parent%3D%221%22%3E%3CmxGeometry%20x%3D%22785.4100858559877%22%20y%3D%22-371.3919995524693%22%20as%3D%22geometry%22%2F%3E%3C%2FmxCell%3E%3C%2Froot%3E%3C%2FmxGraphModel%3E&lt;/span&gt;" style="edgeLabel;html=1;align=center;verticalAlign=middle;resizable=0;points=[];" vertex="1" connectable="0" parent="V-13CdCXcu-0_H58nN8q-39">
          <mxGeometry x="0.1781" y="1" relative="1" as="geometry">
            <mxPoint as="offset" />
          </mxGeometry>
        </mxCell>
        <mxCell id="V-13CdCXcu-0_H58nN8q-42" value="&lt;span style=&quot;color: rgba(0, 0, 0, 0); font-family: monospace; font-size: 0px; text-align: start; background-color: rgb(251, 251, 251);&quot;&gt;%3CmxGraphModel%3E%3Croot%3E%3CmxCell%20id%3D%220%22%2F%3E%3CmxCell%20id%3D%221%22%20parent%3D%220%22%2F%3E%3CmxCell%20id%3D%222%22%20value%3D%22%26lt%3Bspan%20style%3D%26quot%3Bfont-size%3A%2018px%3B%26quot%3B%26gt%3BInclude%26lt%3B%2Fspan%26gt%3B%22%20style%3D%22edgeLabel%3Bhtml%3D1%3Balign%3Dcenter%3BverticalAlign%3Dmiddle%3Bresizable%3D0%3Bpoints%3D%5B%5D%3B%22%20vertex%3D%221%22%20connectable%3D%220%22%20parent%3D%221%22%3E%3CmxGeometry%20x%3D%22785.4100858559877%22%20y%3D%22-371.3919995524693%22%20as%3D%22geometry%22%2F%3E%3C%2FmxCell%3E%3C%2Froot%3E%3C%2FmxGraphModel%3&lt;/span&gt;" style="edgeLabel;html=1;align=center;verticalAlign=middle;resizable=0;points=[];" vertex="1" connectable="0" parent="V-13CdCXcu-0_H58nN8q-39">
          <mxGeometry x="0.1449" y="-1" relative="1" as="geometry">
            <mxPoint as="offset" />
          </mxGeometry>
        </mxCell>
        <mxCell id="V-13CdCXcu-0_H58nN8q-43" value="&lt;span style=&quot;font-size: 18px;&quot;&gt;Include&lt;/span&gt;" style="edgeLabel;html=1;align=center;verticalAlign=middle;resizable=0;points=[];" vertex="1" connectable="0" parent="V-13CdCXcu-0_H58nN8q-39">
          <mxGeometry x="0.1781" y="1" relative="1" as="geometry">
            <mxPoint as="offset" />
          </mxGeometry>
        </mxCell>
      </root>
    </mxGraphModel>
  </diagram>
</mxfile>
